<mxfile host="app.diagrams.net" modified="2023-05-10T07:27:20.826Z" agent="Mozilla/5.0 (Windows NT 10.0; Win64; x64) AppleWebKit/537.36 (KHTML, like Gecko) Chrome/113.0.0.0 Safari/537.36" version="21.2.9" etag="DH6zqV8N7g0OTUEC4LMw" type="github">
  <diagram name="Page-1" id="EAyH3pVJrD0QcX2x6QU3">
    <mxGraphModel>
      <root>
        <mxCell id="0" />
        <mxCell id="1" parent="0" />
      </root>
    </mxGraphModel>
  </diagram>
</mxfile>
